<svg width="558" height="81" viewBox="0 0 558 81" fill="none" xmlns="http://www.w3.org/2000/svg">
<g clip-path="url(#clip0)">
<path d="M2.436 71C1.988 71 1.568 70.832 1.176 70.496C0.84 70.104 0.672 69.684 0.672 69.236C0.672 68.9 0.7 68.648 0.756 68.48L20.328 14.636C20.888 13.012 22.008 12.2 23.688 12.2H36.792C38.472 12.2 39.592 13.012 40.152 14.636L59.724 68.48C59.78 68.648 59.808 68.9 59.808 69.236C59.808 69.684 59.612 70.104 59.22 70.496C58.884 70.832 58.492 71 58.044 71H47.124C45.78 71 44.828 70.384 44.268 69.152L41.244 61.004H19.236L16.212 69.152C15.652 70.384 14.7 71 13.356 71H2.436ZM22.764 48.404H37.716L30.24 26.984L22.764 48.404ZM96.4425 71.84C88.4905 71.84 82.2465 69.908 77.7105 66.044C73.2305 62.18 70.9905 56.384 70.9905 48.656V14.384C70.9905 13.768 71.1865 13.264 71.5785 12.872C71.9705 12.424 72.4745 12.2 73.0905 12.2H84.5985C85.2145 12.2 85.7185 12.424 86.1105 12.872C86.5585 13.264 86.7825 13.768 86.7825 14.384V48.488C86.7825 51.96 87.5945 54.564 89.2185 56.3C90.8985 58.036 93.2785 58.904 96.3585 58.904C99.4385 58.904 101.791 58.036 103.415 56.3C105.095 54.508 105.935 51.904 105.935 48.488V14.384C105.935 13.768 106.131 13.264 106.523 12.872C106.971 12.424 107.503 12.2 108.119 12.2H119.543C120.159 12.2 120.663 12.424 121.055 12.872C121.503 13.264 121.727 13.768 121.727 14.384V48.656C121.727 56.384 119.487 62.18 115.007 66.044C110.527 69.908 104.339 71.84 96.4425 71.84ZM141.428 71C140.868 71 140.364 70.804 139.916 70.412C139.524 69.964 139.328 69.46 139.328 68.9V14.384C139.328 13.768 139.524 13.264 139.916 12.872C140.308 12.424 140.812 12.2 141.428 12.2H163.52C171.808 12.2 178.248 14.188 182.84 18.164C187.432 22.084 189.84 27.74 190.064 35.132C190.12 36.756 190.148 38.912 190.148 41.6C190.148 44.288 190.12 46.416 190.064 47.984C189.504 63.328 180.796 71 163.94 71H141.428ZM163.52 58.4C167.048 58.4 169.652 57.56 171.332 55.88C173.012 54.2 173.908 51.512 174.02 47.816C174.132 46.192 174.188 44.092 174.188 41.516C174.188 38.94 174.132 36.868 174.02 35.3C173.908 31.716 172.928 29.084 171.08 27.404C169.288 25.668 166.628 24.8 163.1 24.8H155.12V58.4H163.52ZM201.834 71C201.386 71 200.966 70.832 200.574 70.496C200.238 70.104 200.07 69.684 200.07 69.236C200.07 68.9 200.098 68.648 200.154 68.48L219.726 14.636C220.286 13.012 221.406 12.2 223.086 12.2H236.19C237.87 12.2 238.99 13.012 239.55 14.636L259.122 68.48C259.178 68.648 259.206 68.9 259.206 69.236C259.206 69.684 259.01 70.104 258.618 70.496C258.282 70.832 257.89 71 257.442 71H246.522C245.178 71 244.226 70.384 243.666 69.152L240.642 61.004H218.634L215.61 69.152C215.05 70.384 214.098 71 212.754 71H201.834ZM222.162 48.404H237.114L229.638 26.984L222.162 48.404ZM295.417 71.84C287.409 71.84 281.109 69.908 276.517 66.044C271.981 62.18 269.573 56.524 269.293 49.076C269.237 47.564 269.209 45.1 269.209 41.684C269.209 38.212 269.237 35.692 269.293 34.124C269.573 26.844 272.009 21.244 276.601 17.324C281.249 13.348 287.521 11.36 295.417 11.36C300.401 11.36 304.853 12.172 308.773 13.796C312.749 15.42 315.885 17.772 318.181 20.852C320.477 23.932 321.681 27.572 321.793 31.772C321.793 32.276 321.597 32.696 321.205 33.032C320.869 33.368 320.449 33.536 319.945 33.536H308.017C307.233 33.536 306.645 33.396 306.253 33.116C305.917 32.78 305.609 32.192 305.329 31.352C304.545 28.608 303.341 26.704 301.717 25.64C300.149 24.52 298.049 23.96 295.417 23.96C289.089 23.96 285.813 27.488 285.589 34.544C285.533 36.056 285.505 38.38 285.505 41.516C285.505 44.652 285.533 47.032 285.589 48.656C285.813 55.712 289.089 59.24 295.417 59.24C297.993 59.24 300.093 58.68 301.717 57.56C303.397 56.44 304.601 54.536 305.329 51.848C305.553 51.008 305.861 50.448 306.253 50.168C306.645 49.832 307.233 49.664 308.017 49.664H319.945C320.449 49.664 320.869 49.832 321.205 50.168C321.597 50.504 321.793 50.924 321.793 51.428C321.681 55.628 320.477 59.268 318.181 62.348C315.885 65.428 312.749 67.78 308.773 69.404C304.853 71.028 300.401 71.84 295.417 71.84ZM339.185 71C338.625 71 338.121 70.804 337.673 70.412C337.281 69.964 337.085 69.46 337.085 68.9V14.3C337.085 13.684 337.281 13.18 337.673 12.788C338.121 12.396 338.625 12.2 339.185 12.2H351.197C351.813 12.2 352.317 12.396 352.709 12.788C353.101 13.18 353.297 13.684 353.297 14.3V68.9C353.297 69.46 353.101 69.964 352.709 70.412C352.317 70.804 351.813 71 351.197 71H339.185ZM395.81 71.84C387.858 71.84 381.586 69.908 376.994 66.044C372.402 62.18 369.966 56.496 369.686 48.992C369.63 47.424 369.602 45.016 369.602 41.768C369.602 38.52 369.63 36.084 369.686 34.46C369.91 27.068 372.346 21.384 376.994 17.408C381.698 13.376 387.97 11.36 395.81 11.36C403.594 11.36 409.81 13.376 414.458 17.408C419.162 21.384 421.626 27.068 421.85 34.46C421.962 37.708 422.018 40.144 422.018 41.768C422.018 43.448 421.962 45.856 421.85 48.992C421.57 56.496 419.134 62.18 414.542 66.044C410.006 69.908 403.762 71.84 395.81 71.84ZM395.81 59.24C398.722 59.24 401.046 58.372 402.782 56.636C404.518 54.844 405.442 52.128 405.554 48.488C405.666 45.24 405.722 42.916 405.722 41.516C405.722 40.116 405.666 37.848 405.554 34.712C405.442 31.072 404.518 28.384 402.782 26.648C401.046 24.856 398.722 23.96 395.81 23.96C392.842 23.96 390.49 24.856 388.754 26.648C387.018 28.384 386.094 31.072 385.982 34.712C385.926 36.28 385.898 38.548 385.898 41.516C385.898 44.54 385.926 46.864 385.982 48.488C386.094 52.128 387.018 54.844 388.754 56.636C390.49 58.372 392.842 59.24 395.81 59.24ZM463.165 71.84C455.213 71.84 448.969 69.908 444.433 66.044C439.953 62.18 437.713 56.384 437.713 48.656V14.384C437.713 13.768 437.909 13.264 438.301 12.872C438.693 12.424 439.197 12.2 439.813 12.2H451.321C451.937 12.2 452.441 12.424 452.833 12.872C453.281 13.264 453.505 13.768 453.505 14.384V48.488C453.505 51.96 454.317 54.564 455.941 56.3C457.621 58.036 460.001 58.904 463.081 58.904C466.161 58.904 468.513 58.036 470.137 56.3C471.817 54.508 472.657 51.904 472.657 48.488V14.384C472.657 13.768 472.853 13.264 473.245 12.872C473.693 12.424 474.225 12.2 474.841 12.2H486.265C486.881 12.2 487.385 12.424 487.777 12.872C488.225 13.264 488.449 13.768 488.449 14.384V48.656C488.449 56.384 486.209 62.18 481.729 66.044C477.249 69.908 471.061 71.84 463.165 71.84ZM528.31 71.84C522.878 71.84 518.258 71.056 514.45 69.488C510.642 67.92 507.758 65.848 505.798 63.272C503.838 60.696 502.802 57.896 502.69 54.872C502.69 54.368 502.858 53.948 503.194 53.612C503.586 53.276 504.034 53.108 504.538 53.108H515.71C516.382 53.108 516.914 53.22 517.306 53.444C517.754 53.668 518.23 54.06 518.734 54.62C519.462 55.964 520.582 57.084 522.094 57.98C523.662 58.82 525.734 59.24 528.31 59.24C531.334 59.24 533.658 58.792 535.282 57.896C536.906 56.944 537.718 55.656 537.718 54.032C537.718 52.856 537.298 51.904 536.458 51.176C535.618 50.392 534.274 49.72 532.426 49.16C530.578 48.544 527.918 47.872 524.446 47.144C517.67 45.8 512.602 43.756 509.242 41.012C505.882 38.268 504.202 34.348 504.202 29.252C504.202 25.78 505.154 22.7 507.058 20.012C509.018 17.268 511.762 15.14 515.29 13.628C518.874 12.116 523.018 11.36 527.722 11.36C532.65 11.36 536.906 12.228 540.49 13.964C544.13 15.644 546.902 17.772 548.806 20.348C550.766 22.868 551.802 25.36 551.914 27.824C551.914 28.328 551.746 28.776 551.41 29.168C551.074 29.504 550.654 29.672 550.15 29.672H538.39C537.158 29.672 536.206 29.168 535.534 28.16C535.198 26.984 534.33 26.004 532.93 25.22C531.53 24.38 529.794 23.96 527.722 23.96C525.37 23.96 523.55 24.38 522.262 25.22C520.974 26.06 520.33 27.292 520.33 28.916C520.33 30.54 521.17 31.828 522.85 32.78C524.53 33.676 527.666 34.6 532.258 35.552C537.522 36.504 541.694 37.708 544.774 39.164C547.91 40.564 550.206 42.412 551.662 44.708C553.174 46.948 553.93 49.804 553.93 53.276C553.93 57.084 552.838 60.388 550.654 63.188C548.47 65.988 545.446 68.144 541.582 69.656C537.718 71.112 533.294 71.84 528.31 71.84Z" fill="black"/>
</g>
<defs>
<clipPath id="clip0">
<rect width="558" height="81" fill="white"/>
</clipPath>
</defs>
</svg>
