<svg width="804" height="124" viewBox="0 0 804 124" fill="none" xmlns="http://www.w3.org/2000/svg">
<path d="M0.08 122H30.64L36.72 100.72H74.64L80.72 122H115.44L79.12 7.59999H36.72L0.08 122ZM55.76 34.16L68.24 78.16H43.12L55.76 34.16ZM147.988 123.92C161.908 123.92 170.068 117.68 174.548 109.04V122H203.188V38.32H174.548V86.48C174.548 97.2 168.948 102.32 160.308 102.32C152.148 102.32 148.468 97.68 148.468 88.24V38.32H119.828V92.88C119.828 114 131.828 123.92 147.988 123.92ZM247.995 123.92C260.635 123.92 269.915 117.04 274.075 108.4V122H302.715V1.52H274.075V50.16C269.275 41.68 261.435 36.08 248.315 36.08C228.475 36.08 212.795 51.28 212.795 79.76V81.04C212.795 110 228.635 123.92 247.995 123.92ZM258.075 102C248.155 102 241.915 94.8 241.915 80.72V79.44C241.915 64.88 247.675 57.68 258.395 57.68C268.955 57.68 274.875 65.2 274.875 79.28V80.56C274.875 94.8 268.475 102 258.075 102ZM339.931 123.92C353.371 123.92 360.731 118.32 364.731 112.24V122H392.571V67.76C392.571 45.52 377.851 36.08 354.811 36.08C331.931 36.08 316.091 46 314.811 66.16H341.691C342.331 60.88 345.211 56.24 353.051 56.24C362.171 56.24 364.091 61.52 364.091 69.52V71.44H356.091C328.251 71.44 311.611 79.12 311.611 98.8C311.611 116.56 324.891 123.92 339.931 123.92ZM349.851 104.56C343.131 104.56 339.931 101.52 339.931 96.72C339.931 89.84 345.051 87.6 356.571 87.6H364.091V92.72C364.091 99.92 358.011 104.56 349.851 104.56ZM445.231 123.92C472.271 123.92 486.511 110.16 487.311 89.04H461.551C460.591 98.16 454.991 102.96 446.991 102.96C436.111 102.96 430.511 95.44 430.511 80.88V79.6C430.511 65.52 436.431 58.32 446.511 58.32C454.831 58.32 458.671 62.64 459.951 70.48H486.831C485.231 45.04 466.351 36.08 445.871 36.08C421.231 36.08 401.231 52.08 401.231 79.92V81.2C401.231 109.36 420.271 123.92 445.231 123.92ZM496.593 122H525.233V38.32H496.593V122ZM510.832 30.32C519.793 30.32 526.673 24.08 526.673 15.6C526.673 7.11999 519.793 0.719997 510.832 0.719997C501.873 0.719997 495.153 7.11999 495.153 15.6C495.153 24.08 501.873 30.32 510.832 30.32ZM581.22 102.64C570.18 102.64 564.58 94.8 564.58 80.4V79.12C564.58 65.04 570.5 57.52 581.22 57.52C592.1 57.52 597.7 65.36 597.7 79.44V80.72C597.7 94.64 591.94 102.64 581.22 102.64ZM581.06 123.92C606.82 123.92 626.82 107.6 626.82 80.4V79.12C626.82 52.56 606.98 36.08 581.22 36.08C555.3 36.08 535.3 53.04 535.3 79.92V81.2C535.3 108.24 555.3 123.92 581.06 123.92ZM663.631 123.92C677.551 123.92 685.711 117.68 690.191 109.04V122H718.831V38.32H690.191V86.48C690.191 97.2 684.591 102.32 675.951 102.32C667.791 102.32 664.111 97.68 664.111 88.24V38.32H635.471V92.88C635.471 114 647.471 123.92 663.631 123.92ZM765.399 123.92C788.599 123.92 803.319 114.96 803.319 95.12C803.319 77.2 792.119 71.12 768.919 68.24C758.679 66.96 754.839 65.36 754.839 61.36C754.839 57.52 758.039 54.8 764.279 54.8C770.839 54.8 773.879 57.52 774.999 63.12H800.919C798.999 43.12 784.599 36.08 763.959 36.08C744.599 36.08 728.119 45.04 728.119 63.6C728.119 81.04 737.559 87.6 759.959 90.48C771.479 92.08 775.479 94 775.479 98C775.479 102.16 772.279 104.88 765.239 104.88C757.079 104.88 754.359 101.52 753.399 95.44H726.999C727.639 114 741.559 123.92 765.399 123.92Z" fill="black"/>
</svg>
